<?xml version="1.0" standalone="no"?>
<!DOCTYPE svg PUBLIC "-//W3C//DTD SVG 20010904//EN"
 "http://www.w3.org/TR/2001/REC-SVG-20010904/DTD/svg10.dtd">
<svg version="1.0" xmlns="http://www.w3.org/2000/svg"
 width="137.000000pt" height="104.000000pt" viewBox="0 0 137.000000 104.000000"
 preserveAspectRatio="xMidYMid meet">

<g transform="translate(0.000000,104.000000) scale(0.100000,-0.100000)"
fill="#000000" stroke="none">
<path d="M655 939 c-22 -4 -63 -8 -92 -8 -113 -2 -214 -66 -249 -158 -10 -26
-29 -57 -42 -67 -39 -31 -55 -81 -41 -124 6 -21 15 -41 20 -47 14 -14 11 -25
-6 -19 -21 8 -75 -49 -75 -79 0 -20 14 -35 60 -66 33 -23 66 -41 75 -41 8 0
19 -9 25 -20 9 -16 7 -24 -5 -36 -21 -21 -19 -30 11 -51 14 -10 48 -37 75 -59
29 -24 70 -47 97 -54 116 -30 433 -20 502 15 67 35 146 150 171 248 8 33 21
54 44 71 38 30 75 99 75 143 0 42 -34 83 -70 83 -16 0 -32 -4 -35 -10 -11 -18
-20 -10 -48 44 -92 177 -299 275 -492 235z m-28 -34 c52 -22 76 -45 63 -61 -9
-9 -3 -10 26 -4 91 21 168 -66 116 -130 -14 -17 -30 -23 -63 -24 -46 -1 -51 6
-33 48 4 11 -11 1 -33 -21 -45 -45 -98 -67 -148 -61 -27 3 -32 1 -23 -9 15
-18 -13 -17 -57 1 -40 17 -43 14 -14 -13 12 -11 18 -25 14 -31 -8 -12 -63 -10
-100 4 -16 7 -16 4 4 -12 28 -22 24 -43 -12 -67 -52 -34 -117 15 -117 87 0 22
5 48 10 59 12 21 60 49 105 60 l30 7 -34 1 c-31 1 -33 3 -26 28 27 108 185
183 292 138z m445 -143 c35 -59 35 -153 1 -166 -10 -4 -31 -14 -47 -23 -28
-15 -28 -17 -11 -29 16 -12 16 -18 6 -61 -16 -60 -29 -77 -47 -62 -11 9 -11
16 2 41 9 16 14 47 12 71 -3 38 -6 43 -35 52 -21 6 -33 16 -33 26 0 10 -9 46
-20 80 -26 86 -18 95 100 98 51 1 57 -1 72 -27z m186 -118 c41 -28 24 -112
-36 -176 -14 -16 -30 -28 -34 -28 -5 0 -31 -10 -58 -22 -43 -20 -50 -28 -55
-60 -5 -29 -12 -38 -26 -38 -28 0 -24 31 11 75 16 20 32 54 35 74 8 55 58 143
95 169 39 26 39 26 68 6z m-431 -35 c24 -37 55 -111 48 -117 -10 -10 -121 23
-133 39 -18 26 -56 24 -75 -5 -10 -14 -29 -25 -51 -29 -56 -9 -105 -37 -152
-86 -36 -38 -44 -42 -44 -25 0 11 -7 41 -15 66 l-16 45 31 33 c32 34 98 70
129 70 9 0 38 10 65 23 33 15 69 22 118 23 l69 2 26 -39z m-100 -89 c3 -11 6
-20 7 -20 24 0 128 -26 151 -37 52 -26 104 -85 125 -140 11 -30 20 -55 20 -58
0 -2 -17 -9 -37 -17 -84 -29 -558 -10 -579 23 -9 15 37 106 69 137 43 40 101
70 154 78 31 5 43 11 43 23 0 35 38 44 47 11z m-479 -69 c20 -11 55 -34 76
-53 70 -61 17 -75 -70 -19 -23 14 -50 31 -60 37 -11 7 -16 15 -12 19 4 4 29
-6 55 -23 26 -17 51 -28 56 -25 10 6 -41 52 -58 53 -15 1 -51 30 -37 30 7 0
29 -9 50 -19z m134 -133 c-6 -6 -15 -8 -19 -4 -4 4 -1 11 7 16 19 12 27 3 12
-12z m8 -48 c0 -11 3 -20 8 -20 4 0 40 -7 81 -15 161 -34 365 -36 505 -4 48
11 56 15 56 36 0 26 17 30 46 9 15 -12 17 -19 8 -33 -43 -71 -484 -92 -678
-33 -75 24 -85 34 -60 61 22 24 34 24 34 -1z m542 -144 c-37 -12 -371 -12
-400 0 -15 6 48 9 203 9 148 0 215 -3 197 -9z"/>
<path d="M989 753 c0 -11 -3 -13 -6 -5 -2 6 -11 12 -19 12 -10 0 -12 -9 -9
-32 l5 -33 -12 28 c-7 15 -17 27 -23 27 -9 0 -9 -14 1 -52 8 -29 14 -60 14
-70 0 -36 20 -17 21 20 l2 37 6 -34 c3 -19 12 -37 20 -39 12 -4 13 7 8 59 -3
40 -2 56 3 44 5 -11 9 -37 9 -57 1 -40 3 -41 39 -32 19 5 22 13 22 53 0 25 -3
56 -6 69 -7 26 -31 29 -37 5 -4 -17 -5 -17 -6 0 0 9 -8 17 -16 17 -8 0 -15 -8
-16 -17z m48 -45 c-3 -8 -6 -5 -6 6 -1 11 2 17 5 13 3 -3 4 -12 1 -19z"/>
<path d="M1194 598 c-21 -10 -74 -94 -74 -117 0 -21 20 -11 35 18 8 16 23 32
33 35 22 7 58 76 39 75 -6 0 -22 -5 -33 -11z"/>
</g>
</svg>
